<svg width="11" height="13" viewBox="0 0 11 13" fill="none" xmlns="http://www.w3.org/2000/svg">
<path d="M2.29167 10.2917H1.375V11.375H2.29167V10.2917ZM7.79167 10.2917H6.875V11.375H7.79167V10.2917ZM4.125 10.2917H3.20833V11.375H4.125V10.2917ZM5.95833 10.2917H5.04167V11.375H5.95833V10.2917ZM9.625 10.2917H8.70833V11.375H9.625V10.2917ZM9.625 8.125H8.70833V9.20833H9.625V8.125ZM9.625 3.79167H8.70833V4.875H9.625V3.79167ZM9.625 5.95833H8.70833V7.04167H9.625V5.95833ZM9.625 1.625H8.70833V2.70833H9.625V1.625ZM7.79167 1.625H6.875V2.70833H7.79167V1.625ZM2.29167 8.125H1.375V9.20833H2.29167V8.125ZM3.66667 1.625H5.95833V2.70833H3.66667C2.90858 2.70833 2.29167 3.43742 2.29167 4.33333V7.04167H1.375V4.33333C1.375 2.83996 2.40304 1.625 3.66667 1.625Z" fill="#B8B8B8"/>
</svg>
